<mxfile host="65bd71144e" scale="1" border="5">
    <diagram name="Data Flow Architecture" id="data-flow-diagram">
        <mxGraphModel dx="906" dy="445" grid="1" gridSize="10" guides="1" tooltips="1" connect="1" arrows="1" fold="1" page="1" pageScale="1" pageWidth="1654" pageHeight="1169" background="#ffffff" math="0" shadow="0">
            <root>
                <mxCell id="0"/>
                <mxCell id="1" parent="0"/>
                <mxCell id="title" value="ApesInSuits Investment Research - Data Flow and Processing Architecture" style="text;html=1;strokeColor=none;fillColor=none;align=center;verticalAlign=middle;whiteSpace=wrap;rounded=0;fontSize=18;fontStyle=1" parent="1" vertex="1">
                    <mxGeometry x="327" y="18" width="1000" height="10" as="geometry"/>
                </mxCell>
                <mxCell id="input-container" value="" style="rounded=1;whiteSpace=wrap;html=1;fillColor=#E3F2FD;strokeColor=#0277BD;strokeWidth=2;" parent="1" vertex="1">
                    <mxGeometry x="80" y="40" width="1480" height="130" as="geometry"/>
                </mxCell>
                <mxCell id="input-title" value="User Input Layer" style="text;html=1;strokeColor=none;fillColor=none;align=left;verticalAlign=top;whiteSpace=wrap;rounded=0;fontSize=14;fontStyle=1" parent="1" vertex="1">
                    <mxGeometry x="90" y="40" width="140" height="20" as="geometry"/>
                </mxCell>
                <mxCell id="user-request" value="Research Request&#xa;Analyze AAPL for Q4 2024&#xa;&#xa;Company ticker&#xa;Time period&#xa;Analysis scope" style="rounded=1;whiteSpace=wrap;html=1;fillColor=#FFFFFF;strokeColor=#0277BD;strokeWidth=2;" parent="1" vertex="1">
                    <mxGeometry x="100" y="70" width="170" height="90" as="geometry"/>
                </mxCell>
                <mxCell id="query-params" value="Query Parameters&#xa;&#xa;Symbol: AAPL&#xa;Period: Q4 2024&#xa;Metrics: Price, News, Macro&#xa;Depth: Comprehensive" style="rounded=1;whiteSpace=wrap;html=1;fillColor=#FFFFFF;strokeColor=#0277BD;strokeWidth=2;" parent="1" vertex="1">
                    <mxGeometry x="300" y="60" width="160" height="100" as="geometry"/>
                </mxCell>
                <mxCell id="user-context" value="User Context&#xa;&#xa;Portfolio state&#xa;Risk preferences&#xa;Previous queries&#xa;Session history" style="rounded=1;whiteSpace=wrap;html=1;fillColor=#FFFFFF;strokeColor=#0277BD;strokeWidth=2;" parent="1" vertex="1">
                    <mxGeometry x="490" y="60" width="140" height="100" as="geometry"/>
                </mxCell>
                <mxCell id="pipeline-container" value="" style="rounded=1;whiteSpace=wrap;html=1;fillColor=#E8F5E8;strokeColor=#2E7D32;strokeWidth=2;" parent="1" vertex="1">
                    <mxGeometry x="80" y="180" width="1480" height="140" as="geometry"/>
                </mxCell>
                <mxCell id="pipeline-title" value="Data Processing Pipeline" style="text;html=1;strokeColor=none;fillColor=none;align=left;verticalAlign=top;whiteSpace=wrap;rounded=0;fontSize=14;fontStyle=1" parent="1" vertex="1">
                    <mxGeometry x="100" y="180" width="180" height="20" as="geometry"/>
                </mxCell>
                <mxCell id="request-validation" value="Request Validation&#xa;&#xa;Input sanitization&#xa;Parameter validation&#xa;Format checking&#xa;Security filters" style="rounded=1;whiteSpace=wrap;html=1;fillColor=#FFFFFF;strokeColor=#2E7D32;strokeWidth=2;" parent="1" vertex="1">
                    <mxGeometry x="100" y="210" width="150" height="100" as="geometry"/>
                </mxCell>
                <mxCell id="query-parsing" value="Query Parsing&#xa;&#xa;NLP processing&#xa;Intent extraction&#xa;Entity recognition&#xa;Context assembly" style="rounded=1;whiteSpace=wrap;html=1;fillColor=#FFFFFF;strokeColor=#2E7D32;strokeWidth=2;" parent="1" vertex="1">
                    <mxGeometry x="290" y="210" width="130" height="100" as="geometry"/>
                </mxCell>
                <mxCell id="task-planning" value="Task Planning&#xa;&#xa;Research strategy&#xa;Agent assignment&#xa;Execution order&#xa;Priority setting" style="rounded=1;whiteSpace=wrap;html=1;fillColor=#FFFFFF;strokeColor=#2E7D32;strokeWidth=2;" parent="1" vertex="1">
                    <mxGeometry x="460" y="210" width="130" height="100" as="geometry"/>
                </mxCell>
                <mxCell id="resource-allocation" value="Resource Allocation&#xa;&#xa;Agent scheduling&#xa;API rate limiting&#xa;Cache optimization&#xa;Load balancing" style="rounded=1;whiteSpace=wrap;html=1;fillColor=#FFFFFF;strokeColor=#2E7D32;strokeWidth=2;" parent="1" vertex="1">
                    <mxGeometry x="630" y="210" width="130" height="100" as="geometry"/>
                </mxCell>
                <mxCell id="agents-container" value="" style="rounded=1;whiteSpace=wrap;html=1;fillColor=#F3E5F5;strokeColor=#4A148C;strokeWidth=2;" parent="1" vertex="1">
                    <mxGeometry x="80" y="340" width="1480" height="250" as="geometry"/>
                </mxCell>
                <mxCell id="agents-title" value="Multi-Agent Data Processing" style="text;html=1;strokeColor=none;fillColor=none;align=left;verticalAlign=top;whiteSpace=wrap;rounded=0;fontSize=14;fontStyle=1" parent="1" vertex="1">
                    <mxGeometry x="100" y="350" width="200" height="20" as="geometry"/>
                </mxCell>
                <mxCell id="stock-processing" value="Stock Data Agent&#xa;&#xa;Input:&#xa;Ticker symbol (AAPL)&#xa;Date range&#xa;&#xa;Processing:&#xa;Price history retrieval&#xa;Technical indicators&#xa;Volume analysis&#xa;Performance metrics&#xa;&#xa;Output:&#xa;Price trends&#xa;Volatility measures&#xa;Trading patterns" style="rounded=1;whiteSpace=wrap;html=1;fillColor=#FFEBEE;strokeColor=#C62828;strokeWidth=2;fontSize=10;" parent="1" vertex="1">
                    <mxGeometry x="120" y="380" width="150" height="200" as="geometry"/>
                </mxCell>
                <mxCell id="news-processing" value="News Data Agent&#xa;&#xa;Input:&#xa;Company keywords&#xa;Date filters&#xa;Source preferences&#xa;&#xa;Processing:&#xa;Article retrieval&#xa;Sentiment analysis&#xa;Impact scoring&#xa;Trend detection&#xa;&#xa;Output:&#xa;Sentiment scores&#xa;News impact ratings&#xa;Narrative themes" style="rounded=1;whiteSpace=wrap;html=1;fillColor=#FCE4EC;strokeColor=#AD1457;strokeWidth=2;fontSize=10;" parent="1" vertex="1">
                    <mxGeometry x="310" y="360" width="150" height="220" as="geometry"/>
                </mxCell>
                <mxCell id="macro-processing" value="Macro Data Agent&#xa;&#xa;Input:&#xa;Economic indicators&#xa;Fed policy data&#xa;Market conditions&#xa;&#xa;Processing:&#xa;Indicator analysis&#xa;Policy impact assessment&#xa;Market correlation&#xa;Risk evaluation&#xa;&#xa;Output:&#xa;Economic outlook&#xa;Policy implications&#xa;Systemic risks" style="rounded=1;whiteSpace=wrap;html=1;fillColor=#E0F2F1;strokeColor=#00695C;strokeWidth=2;fontSize=10;" parent="1" vertex="1">
                    <mxGeometry x="500" y="360" width="150" height="220" as="geometry"/>
                </mxCell>
                <mxCell id="rag-processing" value="RAG Knowledge Agent&#xa;&#xa;Input:&#xa;Query context&#xa;Search parameters&#xa;Knowledge domains&#xa;&#xa;Processing:&#xa;Vector similarity search&#xa;Context retrieval&#xa;Relevance ranking&#xa;Knowledge synthesis&#xa;&#xa;Output:&#xa;Contextual insights&#xa;Historical patterns&#xa;Comparative analysis" style="rounded=1;whiteSpace=wrap;html=1;fillColor=#FFF3E0;strokeColor=#E65100;strokeWidth=2;fontSize=10;" parent="1" vertex="1">
                    <mxGeometry x="690" y="360" width="150" height="220" as="geometry"/>
                </mxCell>
                <mxCell id="sources-container" value="" style="rounded=1;whiteSpace=wrap;html=1;fillColor=#FFEBEE;strokeColor=#C62828;strokeWidth=2;" parent="1" vertex="1">
                    <mxGeometry x="80" y="610" width="1480" height="170" as="geometry"/>
                </mxCell>
                <mxCell id="sources-title" value="External Data Sources" style="text;html=1;strokeColor=none;fillColor=none;align=left;verticalAlign=top;whiteSpace=wrap;rounded=0;fontSize=14;fontStyle=1" parent="1" vertex="1">
                    <mxGeometry x="100" y="610" width="160" height="20" as="geometry"/>
                </mxCell>
                <mxCell id="yfinance-api" value="yFinance API&#xa;&#xa;Data Types:&#xa;Stock prices&#xa;Market data&#xa;Historical charts&#xa;Company info" style="rounded=1;whiteSpace=wrap;html=1;fillColor=#FFFFFF;strokeColor=#C62828;strokeWidth=2;fontSize=10;" parent="1" vertex="1">
                    <mxGeometry x="120" y="640" width="120" height="120" as="geometry"/>
                </mxCell>
                <mxCell id="newsapi" value="NewsAPI&#xa;&#xa;Data Types:&#xa;Financial news&#xa;Press releases&#xa;Market updates&#xa;Analysis articles" style="rounded=1;whiteSpace=wrap;html=1;fillColor=#FFFFFF;strokeColor=#C62828;strokeWidth=2;fontSize=10;" parent="1" vertex="1">
                    <mxGeometry x="270" y="640" width="120" height="120" as="geometry"/>
                </mxCell>
                <mxCell id="fred-api" value="FRED API&#xa;&#xa;Data Types:&#xa;Economic indicators&#xa;Fed policy data&#xa;Interest rates&#xa;GDP metrics" style="rounded=1;whiteSpace=wrap;html=1;fillColor=#FFFFFF;strokeColor=#C62828;strokeWidth=2;fontSize=10;" parent="1" vertex="1">
                    <mxGeometry x="420" y="640" width="120" height="120" as="geometry"/>
                </mxCell>
                <mxCell id="sec-edgar" value="SEC EDGAR&#xa;&#xa;Data Types:&#xa;10-K/10-Q reports&#xa;8-K filings&#xa;Proxy statements&#xa;Registration forms" style="rounded=1;whiteSpace=wrap;html=1;fillColor=#FFFFFF;strokeColor=#C62828;strokeWidth=2;fontSize=10;" parent="1" vertex="1">
                    <mxGeometry x="570" y="640" width="120" height="120" as="geometry"/>
                </mxCell>
                <mxCell id="azure-openai" value="Azure OpenAI&#xa;&#xa;Data Types:&#xa;LLM responses&#xa;Text embeddings&#xa;Chat completions&#xa;Analysis results" style="rounded=1;whiteSpace=wrap;html=1;fillColor=#FFFFFF;strokeColor=#C62828;strokeWidth=2;fontSize=10;" parent="1" vertex="1">
                    <mxGeometry x="720" y="640" width="120" height="120" as="geometry"/>
                </mxCell>
                <mxCell id="storage-container" value="" style="rounded=1;whiteSpace=wrap;html=1;fillColor=#E0F2F1;strokeColor=#00695C;strokeWidth=2;" parent="1" vertex="1">
                    <mxGeometry x="80" y="810" width="1480" height="170" as="geometry"/>
                </mxCell>
                <mxCell id="storage-title" value="Data Storage and Caching Layer" style="text;html=1;strokeColor=none;fillColor=none;align=left;verticalAlign=top;whiteSpace=wrap;rounded=0;fontSize=14;fontStyle=1" parent="1" vertex="1">
                    <mxGeometry x="100" y="810" width="290" height="20" as="geometry"/>
                </mxCell>
                <mxCell id="vector-db" value="Vector Database&#xa;(ChromaDB)&#xa;&#xa;Storage:&#xa;Document embeddings&#xa;Semantic search index&#xa;Metadata filtering" style="rounded=1;whiteSpace=wrap;html=1;fillColor=#FFFFFF;strokeColor=#00695C;strokeWidth=2;fontSize=10;" parent="1" vertex="1">
                    <mxGeometry x="120" y="857" width="130" height="103" as="geometry"/>
                </mxCell>
                <mxCell id="faiss-index" value="FAISS Index&#xa;&#xa;Storage:&#xa;High-performance vectors&#xa;Similarity search&#xa;Clustering algorithms" style="rounded=1;whiteSpace=wrap;html=1;fillColor=#FFFFFF;strokeColor=#00695C;strokeWidth=2;fontSize=10;" parent="1" vertex="1">
                    <mxGeometry x="280" y="857" width="130" height="103" as="geometry"/>
                </mxCell>
                <mxCell id="response-cache" value="Response Cache&#xa;&#xa;Storage:&#xa;API responses&#xa;Analysis results&#xa;TTL management" style="rounded=1;whiteSpace=wrap;html=1;fillColor=#FFFFFF;strokeColor=#00695C;strokeWidth=2;fontSize=10;" parent="1" vertex="1">
                    <mxGeometry x="440" y="857" width="130" height="103" as="geometry"/>
                </mxCell>
                <mxCell id="session-storage" value="Session Storage&#xa;&#xa;Storage:&#xa;User context&#xa;Conversation history&#xa;Preferences" style="rounded=1;whiteSpace=wrap;html=1;fillColor=#FFFFFF;strokeColor=#00695C;strokeWidth=2;fontSize=10;" parent="1" vertex="1">
                    <mxGeometry x="600" y="857" width="130" height="93" as="geometry"/>
                </mxCell>
                <mxCell id="output-container" value="" style="rounded=1;whiteSpace=wrap;html=1;fillColor=#FFF3E0;strokeColor=#E65100;strokeWidth=2;" parent="1" vertex="1">
                    <mxGeometry x="80" y="1014" width="1480" height="146" as="geometry"/>
                </mxCell>
                <mxCell id="output-title" value="Output Processing and Synthesis" style="text;html=1;strokeColor=none;fillColor=none;align=left;verticalAlign=top;whiteSpace=wrap;rounded=0;fontSize=14;fontStyle=1" parent="1" vertex="1">
                    <mxGeometry x="90" y="1014" width="340" height="20" as="geometry"/>
                </mxCell>
                <mxCell id="data-aggregation" value="Data Aggregation&#xa;&#xa;Multi-agent results&#xa;Data normalization&#xa;Conflict resolution&#xa;Quality scoring" style="rounded=1;whiteSpace=wrap;html=1;fillColor=#FFFFFF;strokeColor=#E65100;strokeWidth=2;fontSize=10;" parent="1" vertex="1">
                    <mxGeometry x="120" y="1053.5" width="130" height="87" as="geometry"/>
                </mxCell>
                <mxCell id="insight-generation" value="Insight Generation&#xa;&#xa;Pattern recognition&#xa;Correlation analysis&#xa;Trend identification&#xa;Risk assessment" style="rounded=1;whiteSpace=wrap;html=1;fillColor=#FFFFFF;strokeColor=#E65100;strokeWidth=2;fontSize=10;" parent="1" vertex="1">
                    <mxGeometry x="280" y="1054" width="130" height="86" as="geometry"/>
                </mxCell>
                <mxCell id="report-synthesis" value="Report Synthesis&#xa;&#xa;Content structuring&#xa;Narrative generation&#xa;Recommendation logic&#xa;Executive summary" style="rounded=1;whiteSpace=wrap;html=1;fillColor=#FFFFFF;strokeColor=#E65100;strokeWidth=2;fontSize=10;" parent="1" vertex="1">
                    <mxGeometry x="440" y="1054" width="130" height="86" as="geometry"/>
                </mxCell>
                <mxCell id="quality-assurance" value="Quality Assurance&#xa;&#xa;Fact verification&#xa;Consistency checks&#xa;Accuracy scoring&#xa;Bias detection" style="rounded=1;whiteSpace=wrap;html=1;fillColor=#FFFFFF;strokeColor=#E65100;strokeWidth=2;fontSize=10;" parent="1" vertex="1">
                    <mxGeometry x="600" y="1054" width="130" height="86" as="geometry"/>
                </mxCell>
                <mxCell id="output-formatting" value="Output Formatting&#xa;&#xa;JSON structuring&#xa;Visualization data&#xa;Chart preparation&#xa;Export formats" style="rounded=1;whiteSpace=wrap;html=1;fillColor=#FFFFFF;strokeColor=#E65100;strokeWidth=2;fontSize=10;" parent="1" vertex="1">
                    <mxGeometry x="760" y="1054" width="130" height="86" as="geometry"/>
                </mxCell>
                <mxCell id="flow1" value="" style="endArrow=classic;html=1;rounded=0;exitX=0.5;exitY=1;entryX=0.5;entryY=0;strokeColor=#1976D2;strokeWidth=3;" parent="1" source="user-request" target="request-validation" edge="1">
                    <mxGeometry width="50" height="50" relative="1" as="geometry">
                        <mxPoint x="190" y="190" as="sourcePoint"/>
                        <mxPoint x="185" y="230" as="targetPoint"/>
                    </mxGeometry>
                </mxCell>
                <mxCell id="flow2" value="" style="endArrow=classic;html=1;rounded=0;exitX=1;exitY=0.5;entryX=0;entryY=0.5;strokeColor=#2E7D32;strokeWidth=2;" parent="1" source="request-validation" target="query-parsing" edge="1">
                    <mxGeometry width="50" height="50" relative="1" as="geometry">
                        <mxPoint x="250" y="270" as="sourcePoint"/>
                        <mxPoint x="290" y="270" as="targetPoint"/>
                    </mxGeometry>
                </mxCell>
                <mxCell id="flow3" value="" style="endArrow=classic;html=1;rounded=0;exitX=1;exitY=0.5;entryX=0;entryY=0.5;strokeColor=#2E7D32;strokeWidth=2;" parent="1" source="query-parsing" target="task-planning" edge="1">
                    <mxGeometry width="50" height="50" relative="1" as="geometry">
                        <mxPoint x="420" y="270" as="sourcePoint"/>
                        <mxPoint x="460" y="270" as="targetPoint"/>
                    </mxGeometry>
                </mxCell>
                <mxCell id="flow4" value="" style="endArrow=classic;html=1;rounded=0;exitX=1;exitY=0.5;entryX=0;entryY=0.5;strokeColor=#2E7D32;strokeWidth=2;" parent="1" source="task-planning" target="resource-allocation" edge="1">
                    <mxGeometry width="50" height="50" relative="1" as="geometry">
                        <mxPoint x="590" y="270" as="sourcePoint"/>
                        <mxPoint x="630" y="270" as="targetPoint"/>
                    </mxGeometry>
                </mxCell>
                <mxCell id="flow5" value="" style="endArrow=classic;html=1;rounded=0;exitX=0.5;exitY=1;entryX=0.5;entryY=0;strokeColor=#1976D2;strokeWidth=3;" parent="1" source="task-planning" target="stock-processing" edge="1">
                    <mxGeometry width="50" height="50" relative="1" as="geometry">
                        <mxPoint x="525" y="310" as="sourcePoint"/>
                        <mxPoint x="195" y="390" as="targetPoint"/>
                        <Array as="points">
                            <mxPoint x="525" y="330"/>
                            <mxPoint x="195" y="330"/>
                        </Array>
                    </mxGeometry>
                </mxCell>
                <mxCell id="flow6" value="" style="endArrow=classic;html=1;rounded=0;strokeColor=#1976D2;strokeWidth=3;" parent="1" edge="1">
                    <mxGeometry width="50" height="50" relative="1" as="geometry">
                        <mxPoint x="385" y="330" as="sourcePoint"/>
                        <mxPoint x="385" y="390" as="targetPoint"/>
                    </mxGeometry>
                </mxCell>
                <mxCell id="flow7" value="" style="endArrow=classic;html=1;rounded=0;strokeColor=#1976D2;strokeWidth=3;" parent="1" edge="1">
                    <mxGeometry width="50" height="50" relative="1" as="geometry">
                        <mxPoint x="575" y="330" as="sourcePoint"/>
                        <mxPoint x="575" y="390" as="targetPoint"/>
                    </mxGeometry>
                </mxCell>
                <mxCell id="flow8" value="" style="endArrow=classic;html=1;rounded=0;exitX=0.5;exitY=1;entryX=0.5;entryY=0;strokeColor=#C62828;strokeWidth=2;" parent="1" source="stock-processing" target="yfinance-api" edge="1">
                    <mxGeometry width="50" height="50" relative="1" as="geometry">
                        <mxPoint x="195" y="550" as="sourcePoint"/>
                        <mxPoint x="180" y="630" as="targetPoint"/>
                    </mxGeometry>
                </mxCell>
                <mxCell id="flow9" value="" style="endArrow=classic;html=1;rounded=0;exitX=0.5;exitY=1;entryX=0.5;entryY=0;strokeColor=#AD1457;strokeWidth=2;" parent="1" source="news-processing" target="newsapi" edge="1">
                    <mxGeometry width="50" height="50" relative="1" as="geometry">
                        <mxPoint x="385" y="550" as="sourcePoint"/>
                        <mxPoint x="330" y="630" as="targetPoint"/>
                    </mxGeometry>
                </mxCell>
                <mxCell id="flow10" value="" style="endArrow=classic;html=1;rounded=0;exitX=0.5;exitY=1;entryX=0.5;entryY=0;strokeColor=#00695C;strokeWidth=2;" parent="1" source="macro-processing" target="fred-api" edge="1">
                    <mxGeometry width="50" height="50" relative="1" as="geometry">
                        <mxPoint x="575" y="550" as="sourcePoint"/>
                        <mxPoint x="480" y="630" as="targetPoint"/>
                    </mxGeometry>
                </mxCell>
                <mxCell id="flow11" value="" style="endArrow=classic;html=1;rounded=0;exitX=0.5;exitY=1;entryX=0.5;entryY=0;strokeColor=#666666;strokeWidth=2;" parent="1" source="yfinance-api" target="response-cache" edge="1">
                    <mxGeometry width="50" height="50" relative="1" as="geometry">
                        <mxPoint x="180" y="710" as="sourcePoint"/>
                        <mxPoint x="505" y="790" as="targetPoint"/>
                        <Array as="points">
                            <mxPoint x="180" y="780"/>
                            <mxPoint x="180" y="800"/>
                            <mxPoint x="260" y="800"/>
                            <mxPoint x="510" y="800"/>
                        </Array>
                    </mxGeometry>
                </mxCell>
                <mxCell id="flow13" value="" style="endArrow=classic;html=1;rounded=0;exitX=0.5;exitY=1;entryX=0.5;entryY=0;strokeColor=#E65100;strokeWidth=2;" parent="1" source="rag-processing" target="vector-db" edge="1">
                    <mxGeometry width="50" height="50" relative="1" as="geometry">
                        <mxPoint x="765" y="550" as="sourcePoint"/>
                        <mxPoint x="185" y="790" as="targetPoint"/>
                        <Array as="points">
                            <mxPoint x="765" y="760"/>
                            <mxPoint x="185" y="760"/>
                        </Array>
                    </mxGeometry>
                </mxCell>
                <mxCell id="flow14" value="" style="endArrow=classic;html=1;rounded=0;exitX=0.5;exitY=1;entryX=0.5;entryY=0;strokeColor=#1976D2;strokeWidth=3;" parent="1" source="response-cache" target="data-aggregation" edge="1">
                    <mxGeometry width="50" height="50" relative="1" as="geometry">
                        <mxPoint x="505" y="870" as="sourcePoint"/>
                        <mxPoint x="185" y="950" as="targetPoint"/>
                        <Array as="points">
                            <mxPoint x="505" y="1000"/>
                            <mxPoint x="340" y="1000"/>
                            <mxPoint x="185" y="1000"/>
                        </Array>
                    </mxGeometry>
                </mxCell>
                <mxCell id="flow15" value="" style="endArrow=classic;html=1;rounded=0;exitX=1;exitY=0.5;entryX=0;entryY=0.5;strokeColor=#E65100;strokeWidth=2;" parent="1" source="data-aggregation" target="insight-generation" edge="1">
                    <mxGeometry width="50" height="50" relative="1" as="geometry">
                        <mxPoint x="250" y="990" as="sourcePoint"/>
                        <mxPoint x="280" y="990" as="targetPoint"/>
                    </mxGeometry>
                </mxCell>
                <mxCell id="flow16" value="" style="endArrow=classic;html=1;rounded=0;exitX=1;exitY=0.5;entryX=0;entryY=0.5;strokeColor=#E65100;strokeWidth=2;" parent="1" source="insight-generation" target="report-synthesis" edge="1">
                    <mxGeometry width="50" height="50" relative="1" as="geometry">
                        <mxPoint x="410" y="990" as="sourcePoint"/>
                        <mxPoint x="440" y="990" as="targetPoint"/>
                    </mxGeometry>
                </mxCell>
                <mxCell id="flow17" value="" style="endArrow=classic;html=1;rounded=0;exitX=1;exitY=0.5;entryX=0;entryY=0.5;strokeColor=#E65100;strokeWidth=2;" parent="1" source="report-synthesis" target="quality-assurance" edge="1">
                    <mxGeometry width="50" height="50" relative="1" as="geometry">
                        <mxPoint x="570" y="990" as="sourcePoint"/>
                        <mxPoint x="600" y="990" as="targetPoint"/>
                    </mxGeometry>
                </mxCell>
                <mxCell id="flow18" value="" style="endArrow=classic;html=1;rounded=0;exitX=1;exitY=0.5;entryX=0;entryY=0.5;strokeColor=#E65100;strokeWidth=2;" parent="1" source="quality-assurance" target="output-formatting" edge="1">
                    <mxGeometry width="50" height="50" relative="1" as="geometry">
                        <mxPoint x="730" y="990" as="sourcePoint"/>
                        <mxPoint x="760" y="990" as="targetPoint"/>
                    </mxGeometry>
                </mxCell>
            </root>
        </mxGraphModel>
    </diagram>
</mxfile>